<svg xmlns="http://www.w3.org/2000/svg" viewBox="0 0 44 30"><path d="M18.41,11.42a1,1,0,0,0,0-2H4.09a1,1,0,0,0,0,2Z"/><path d="M43.58,11.88l-9.7-6.82a1,1,0,0,0-.58-.18H30.46V1a1,1,0,0,0-1-1H9.84a1,1,0,0,0-1,1V4.88H1.09a1,1,0,0,0,0,2H15.4a1,1,0,1,0,0-2H10.84V2H28.46V23.8H18.3a4.82,4.82,0,0,0-4.62-3.48,4.77,4.77,0,0,0-2.84.94V16.34h4.47a1,1,0,0,0,0-2H1a1,1,0,0,0,0,2H8.84v8.82a4.83,4.83,0,0,0,9.62.64H28.53a4.81,4.81,0,0,0,9.55,0H43a1,1,0,0,0,1-1V12.7A1,1,0,0,0,43.58,11.88ZM13.68,28a2.84,2.84,0,1,1,2.84-2.84A2.84,2.84,0,0,1,13.68,28ZM33.3,28a2.84,2.84,0,1,1,2.84-2.84A2.84,2.84,0,0,1,33.3,28ZM42,23.8H37.93a4.84,4.84,0,0,0-4.63-3.48,4.77,4.77,0,0,0-2.84.94V6.88H33l2.18,1.54h-1a1,1,0,0,0-1,1v5.92a1,1,0,0,0,1,1H42Zm0-9.46H35.22V10.42H38l4,2.8Z"/></svg>