<svg data-name="App Store" xmlns="http://www.w3.org/2000/svg" width="96" height="32">
  <g stroke="#666">
    <rect width="96" height="32" rx="5" stroke="none"/>
    <rect x=".5" y=".5" width="95" height="31" rx="4.5" fill="none"/>
  </g>
  <path data-name="Logo &amp; Copies" d="M19.9 16.2a3.74 3.74 0 0 1 1.9-3.3 3.976 3.976 0 0 0-3.2-1.7c-1.3-.1-2.6.8-3.3.8s-1.8-.8-2.9-.8a4.173 4.173 0 0 0-3.6 2.2c-1.5 2.7-.4 6.6 1.1 8.8.7 1.1 1.6 2.2 2.7 2.2s1.5-.7 2.9-.7c1.3 0 1.7.7 2.9.7s1.9-1.1 2.7-2.1a11.507 11.507 0 0 0 1.2-2.5 4.119 4.119 0 0 1-2.4-3.6zm-2.1-6.4a4.678 4.678 0 0 0 .9-2.8 4.325 4.325 0 0 0-2.6 1.3 3.7 3.7 0 0 0-.9 2.7 3.367 3.367 0 0 0 2.6-1.2zM34 21.7h-3.8l-.9 2.7h-1.6l3.6-9.9H33l3.6 9.9H35zm-3.4-1.2h3l-1.5-4.4zm13.7.3c0 2.3-1.2 3.7-3 3.7a2.556 2.556 0 0 1-2.3-1.3v3.6h-1.5v-9.6h1.4v1.2a2.772 2.772 0 0 1 2.3-1.3c1.9 0 3.1 1.4 3.1 3.7zm-1.6 0c0-1.5-.8-2.4-1.9-2.4s-1.9 1-1.9 2.4c0 1.5.8 2.4 1.9 2.4 1.2 0 1.9-.9 1.9-2.4zm9.5 0c0 2.3-1.2 3.7-3 3.7a2.556 2.556 0 0 1-2.3-1.3v3.6h-1.5v-9.6h1.4v1.2a2.772 2.772 0 0 1 2.3-1.3c1.9 0 3.1 1.4 3.1 3.7zm-1.5 0c0-1.5-.8-2.4-1.9-2.4s-1.9 1-1.9 2.4c0 1.5.8 2.4 1.9 2.4s1.9-.9 1.9-2.4zm6.8.8c.1 1 1.1 1.6 2.4 1.6s2.2-.6 2.2-1.5c0-.8-.5-1.2-1.8-1.5l-1.3-.3q-2.7-.6-2.7-2.7c0-1.7 1.5-2.9 3.6-2.9s3.5 1.2 3.6 2.9H62a1.857 1.857 0 0 0-2.1-1.6c-1.2 0-2 .6-2 1.5 0 .7.5 1.1 1.8 1.4l1.1.3c2 .5 2.9 1.3 2.9 2.8 0 1.9-1.5 3-3.8 3-2.2 0-3.7-1.1-3.8-2.9zm9.3-6.2v1.7h1.4v1.2h-1.4v4a.8.8 0 0 0 .9.9h.5v1.2a2.2 2.2 0 0 1-.8.1c-1.5 0-2-.6-2-2v-4.2h-1.1v-1.2h1.1v-1.7h1.4zm2.2 5.4c0-2.3 1.3-3.7 3.4-3.7s3.4 1.4 3.4 3.7-1.3 3.7-3.4 3.7-3.4-1.4-3.4-3.7zm5.3 0c0-1.6-.7-2.5-1.9-2.5s-1.9.9-1.9 2.5.7 2.5 1.9 2.5 1.9-1 1.9-2.5zm2.8-3.6h1.4v1.2a1.714 1.714 0 0 1 1.7-1.3.9.9 0 0 1 .5.1v1.4a1.483 1.483 0 0 0-.7-.1 1.617 1.617 0 0 0-1.6 1.4v4.5h-1.5zm10.5 5.1a2.914 2.914 0 0 1-3.1 2.2c-2.1 0-3.4-1.4-3.4-3.7s1.3-3.7 3.4-3.7c2 0 3.3 1.4 3.3 3.6v.5h-5.1v.1a1.824 1.824 0 0 0 1.7 2h.2a1.62 1.62 0 0 0 1.7-1zm-5-2.2h3.6a1.634 1.634 0 0 0-1.6-1.8h-.1a1.817 1.817 0 0 0-1.9 1.8zM30.4 7a2.138 2.138 0 0 1 2.3 2v.4a2.109 2.109 0 0 1-2.2 2.4h-1.7V7zm-1 4.1h.9a1.617 1.617 0 0 0 1.6-1.4v-.3a1.553 1.553 0 0 0-1.3-1.7h-1.2v3.4zm4.1-1.1a1.712 1.712 0 0 1 3.4-.4v.3a1.712 1.712 0 0 1-3.4.4zm2.6 0c0-.8-.4-1.2-1-1.2s-1 .5-1 1.2c0 .8.3 1.2 1 1.2s1-.5 1-1.2zm5.3 1.8h-.7L40 9.1h-.1l-.7 2.7h-.7l-1-3.6h.7l.6 2.7h.1l.7-2.7h.7l.7 2.7.6-2.7h.7zm1.8-3.6h.7v.6h.1a.871.871 0 0 1 1-.7 1.287 1.287 0 0 1 1.3 1.1v2.6h-.7V9.6c0-.6-.3-.9-.8-.9a.876.876 0 0 0-.9.8v2.2h-.7zm4.2-1.5h.7v5h-.7zm1.7 3.3a1.706 1.706 0 0 1 1.5-1.9 1.765 1.765 0 0 1 1.9 1.5v.3a1.712 1.712 0 0 1-3.4.4zm2.7 0c0-.8-.4-1.2-1-1.2s-1 .5-1 1.2c0 .8.3 1.2 1 1.2.6 0 1-.5 1-1.2zm1.5.7c0-.6.5-1 1.3-1.1l1-.1v-.2c0-.4-.3-.6-.7-.6s-.7.1-.8.4h-.7a1.377 1.377 0 0 1 1.5-1c.9 0 1.4.4 1.4 1.2v2.5h-.7v-.5h-.1a1.149 1.149 0 0 1-1.1.6 1.108 1.108 0 0 1-1.2-1c.1-.1.1-.1.1-.2zm2.3-.3v-.3l-.9.1c-.5 0-.7.2-.7.5s.3.5.7.5c.4.1.8-.3.9-.8zm1.6-.4c0-1.1.6-1.9 1.5-1.9a1.149 1.149 0 0 1 1.1.6h.1v-2h.7v5h-.7v-.6h-.1a1.255 1.255 0 0 1-1.1.6c-.9.1-1.5-.6-1.5-1.7zm.7 0c0 .8.4 1.2 1 1.2s1-.5 1-1.2c0-.8-.4-1.2-1-1.2-.6-.1-1 .4-1 1.2zm5.6 0a1.712 1.712 0 0 1 3.4-.4v.3a1.712 1.712 0 0 1-3.4.4zm2.7 0c0-.8-.4-1.2-1-1.2s-1 .5-1 1.2c0 .8.3 1.2 1 1.2.6 0 1-.5 1-1.2zm1.7-1.8h.7v.6h.1a1.007 1.007 0 0 1 1.1-.6 1.287 1.287 0 0 1 1.3 1.1v2.6h-.7V9.6c0-.6-.3-.9-.8-.9a.876.876 0 0 0-.9.8v2.2H68V8.2zm7-.9v.9h.8v.6h-.8v1.9c0 .4.2.5.5.5h.3v.6h-.4c-.8 0-1.1-.3-1.1-1v-2h-.6v-.6h.6v-.9zm1.8-.6h.7v2h.1a1.007 1.007 0 0 1 1.1-.6 1.135 1.135 0 0 1 1.2 1.1v2.5h-.7V9.6c0-.6-.3-.9-.8-.9a.817.817 0 0 0-.9.8v2.2h-.7zm7.2 4.1a1.435 1.435 0 0 1-1.6 1 1.666 1.666 0 0 1-1.7-1.6v-.3A1.75 1.75 0 0 1 82 8h.2a1.583 1.583 0 0 1 1.6 1.8v.2h-2.5a.919.919 0 0 0 .9 1h.1a1.086 1.086 0 0 0 .9-.4zm-2.5-1.2h1.8a.817.817 0 0 0-.8-.9h-.1a.967.967 0 0 0-.9.9z" fill="#fff"/>
</svg>
