<svg xmlns="http://www.w3.org/2000/svg" width="109" height="33">
  <defs>
    <linearGradient id="a" x1=".863" y1=".178" x2="-.499" y2="1.942" gradientUnits="objectBoundingBox">
      <stop offset="0" stop-color="#ee4447"/>
      <stop offset="1" stop-color="#c5166c"/>
    </linearGradient>
    <linearGradient id="b" x1=".807" y1=".494" x2="-1.575" y2=".494" gradientUnits="objectBoundingBox">
      <stop offset="0" stop-color="#ffdf00"/>
      <stop offset=".409" stop-color="#fbbc0e"/>
      <stop offset=".775" stop-color="#f9a418"/>
      <stop offset="1" stop-color="#f89b1c"/>
    </linearGradient>
    <linearGradient id="c" x1="-.505" y1="-.959" x2=".607" y2=".488" gradientUnits="objectBoundingBox">
      <stop offset="0" stop-color="#269e6f"/>
      <stop offset=".051" stop-color="#2ba06f"/>
      <stop offset=".466" stop-color="#53b26b"/>
      <stop offset=".797" stop-color="#6bbd69"/>
      <stop offset="1" stop-color="#74c168"/>
    </linearGradient>
  </defs>
  <g data-name="Google Play">
    <path d="M104.5.5H4.5a3.961 3.961 0 0 0-4 4v24a3.961 3.961 0 0 0 4 4h100a3.961 3.961 0 0 0 4-4v-24a3.961 3.961 0 0 0-4-4z" stroke="#666"/>
    <path data-name="Get It On Google Play" d="M38.42 8.66a2.179 2.179 0 0 1-.56 1.6 2.48 2.48 0 0 1-4.24-1.76 2.459 2.459 0 0 1 2.48-2.48 2.13 2.13 0 0 1 .96.24 1.742 1.742 0 0 1 .72.56l-.4.4a1.492 1.492 0 0 0-1.28-.56 1.592 1.592 0 0 0-1.28.56 1.648 1.648 0 0 0-.56 1.36 1.648 1.648 0 0 0 .56 1.36 2.06 2.06 0 0 0 1.28.56 1.755 1.755 0 0 0 1.36-.56 1.325 1.325 0 0 0 .4-.96H36.1v-.64h2.32zm3.68-2h-2.16v1.52h2v.56h-2v1.52h2.16v.64h-2.8V6.1h2.8zm2.64 4.24h-.64V6.66h-1.36V6.1h3.36v.56h-1.36zm3.68 0V6.1h.64v4.8zm3.36 0h-.64V6.66h-1.36V6.1h3.28v.56H51.7v4.24zm7.6-.64a2.48 2.48 0 0 1-4.24-1.76 2.48 2.48 0 1 1 4.96 0 2.352 2.352 0 0 1-.72 1.76zm-3.04-.4a1.888 1.888 0 0 0 1.28.56 1.592 1.592 0 0 0 1.28-.56 1.93 1.93 0 0 0 .56-1.36 1.648 1.648 0 0 0-.56-1.36 1.888 1.888 0 0 0-1.28-.56 1.592 1.592 0 0 0-1.28.56 1.93 1.93 0 0 0-.56 1.36 1.648 1.648 0 0 0 .56 1.36zm4.64 1.04V6.1h.72l2.32 3.76V6.1h.64v4.8h-.64l-2.48-3.92v3.92zm-6 7.04a3.366 3.366 0 0 0-3.44 3.44 3.415 3.415 0 0 0 3.44 3.44 3.366 3.366 0 0 0 3.44-3.44 3.319 3.319 0 0 0-3.44-3.44zm0 5.44a2.087 2.087 0 0 1 0-4.16 1.938 1.938 0 0 1 1.92 2.08 1.986 1.986 0 0 1-1.92 2.08zm-7.44-5.44a3.366 3.366 0 0 0-3.44 3.44 3.415 3.415 0 0 0 3.44 3.44 3.366 3.366 0 0 0 3.44-3.44 3.319 3.319 0 0 0-3.44-3.44zm0 5.44a2.087 2.087 0 0 1 0-4.16 1.938 1.938 0 0 1 1.92 2.08 1.986 1.986 0 0 1-1.92 2.08zm-8.88-4.4v1.44h3.44a3.025 3.025 0 0 1-.8 1.84 3.541 3.541 0 0 1-2.64 1.04 3.725 3.725 0 0 1-3.76-3.84 3.774 3.774 0 0 1 3.76-3.84 3.967 3.967 0 0 1 2.64 1.04l1.04-1.04a5.126 5.126 0 0 0-3.6-1.44 5.4 5.4 0 0 0-5.36 5.28 5.4 5.4 0 0 0 5.36 5.28 4.6 4.6 0 0 0 3.68-1.52 4.816 4.816 0 0 0 1.28-3.36 3 3 0 0 0-.08-.88zm36.32 1.12a3.108 3.108 0 0 0-2.88-2.16 3.222 3.222 0 0 0-3.2 3.44 3.348 3.348 0 0 0 3.36 3.44 3.282 3.282 0 0 0 2.8-1.52l-1.12-.8a1.95 1.95 0 0 1-1.68.96 1.736 1.736 0 0 1-1.68-1.04l4.56-1.92zm-4.64 1.12a1.943 1.943 0 0 1 1.76-2 1.415 1.415 0 0 1 1.28.72zm-3.76 3.28h1.52v-10h-1.52zm-2.4-5.84a2.634 2.634 0 0 0-1.84-.8 3.437 3.437 0 0 0-3.28 3.44 3.313 3.313 0 0 0 3.28 3.36 2.3 2.3 0 0 0 1.76-.8h.08v.48a1.819 1.819 0 0 1-3.52.8l-1.28.56a3.3 3.3 0 0 0 3.04 2c1.76 0 3.2-1.04 3.2-3.52V18.1h-1.44v.56zm-1.76 4.72a2.087 2.087 0 0 1 0-4.16 1.925 1.925 0 0 1 1.84 2.08 1.925 1.925 0 0 1-1.84 2.08zm19.52-8.88h-3.6v10h1.52v-3.76h2.08a3.124 3.124 0 1 0 0-6.24zm.08 4.8h-2.16v-3.44h2.16a1.757 1.757 0 0 1 1.76 1.68 1.831 1.831 0 0 1-1.76 1.76zm9.2-1.44a2.689 2.689 0 0 0-2.64 1.52l1.36.56a1.413 1.413 0 0 1 1.36-.72 1.5 1.5 0 0 1 1.6 1.28v.08a3.173 3.173 0 0 0-1.52-.4c-1.44 0-2.88.8-2.88 2.24a2.344 2.344 0 0 0 2.48 2.24 2.251 2.251 0 0 0 1.92-.96h.08v.8h1.44v-3.84a3.028 3.028 0 0 0-3.2-2.8zm-.16 5.52c-.48 0-1.2-.24-1.2-.88 0-.8.88-1.04 1.6-1.04a3.094 3.094 0 0 1 1.36.32 1.863 1.863 0 0 1-1.76 1.6zm8.4-5.28l-1.68 4.32h-.08l-1.76-4.32h-1.6l2.64 6.08-1.52 3.36h1.52l4.08-9.44zm-13.44 6.4h1.52v-10h-1.52z" fill="#fff"/>
    <path d="M23.76 23.36L20.4 20l-10 10c.4.4.96.4 1.68.08l11.68-6.72" transform="translate(-1.58 -3.5)" fill="url(#a)"/>
    <path d="M26.18 22.6l-3.28-3.28v-.24l3.28-3.28.08.08 3.92 2.24a1.221 1.221 0 0 1 0 2.32l-4 2.16z" transform="translate(-4.08 -2.66)" fill="url(#b)"/>
    <path d="M23.76 14.074l-11.68-6.64a1.3 1.3 0 0 0-1.68.08l10 9.92z" transform="translate(-1.58 -.934)" fill="url(#c)"/>
    <path d="M8.82 6.5a1.788 1.788 0 0 0-.32 1.2v17.6a1.583 1.583 0 0 0 .4 1.12l.08.08 9.92-9.92v-.16L8.82 6.5z" fill="#5bc8f3"/>
  </g>
</svg>
