<svg id="Layer_1" data-name="Layer 1" xmlns="http://www.w3.org/2000/svg" viewBox="0 0 30 20"><defs><style>.cls-1{fill:#ed4c2f;}.cls-2{fill:#fff;}</style></defs><rect class="cls-1" width="30" height="20" rx="3"/><path class="cls-2" d="M10.11,5l-7.77,1A.41.41,0,0,0,2,6.51v7.38a1,1,0,0,0,1,.86h8.81a1,1,0,0,0,.78-1V7.69s0-.86-1-.86H3.11a.54.54,0,0,1-.41-.41c0-.13,0-.15.17-.15h7.8V5.43A.47.47,0,0,0,10.11,5Z"/><path class="cls-1" d="M7.47,13.5a2.44,2.44,0,0,1-1.82-1,.32.32,0,0,1,0-.45.33.33,0,0,1,.45,0c.73.73,1.08.91,1.66.75a1.09,1.09,0,0,0,.67-1q0-.59-.81-.75c-1-.2-1.59-.58-1.75-1.13a1.37,1.37,0,0,1,.47-1.36l0,0a1.85,1.85,0,0,1,2.45.22.33.33,0,0,1,0,.45.32.32,0,0,1-.45,0S7.5,8.44,6.78,9a.79.79,0,0,0-.3.72c.09.3.54.54,1.26.69,1.23.24,1.34,1.06,1.32,1.4a1.79,1.79,0,0,1-1.22,1.63Z"/><path class="cls-2" d="M15.89,6.78a2.2,2.2,0,0,0-.46-.19,1.21,1.21,0,0,1-.67-.37.47.47,0,0,1,0-.53.53.53,0,0,1,.44-.23,1.49,1.49,0,0,1,.78.18.14.14,0,0,0,.19-.06.15.15,0,0,0-.06-.2,1.78,1.78,0,0,0-.93-.21.8.8,0,0,0-.68.38.73.73,0,0,0,0,.84,1.47,1.47,0,0,0,.83.47,1.42,1.42,0,0,1,.39.17.73.73,0,0,1,.3.31.52.52,0,0,1,0,.35.65.65,0,0,1-.08.17,0,0,0,0,1,0,0,.63.63,0,0,1-.54.26,1.8,1.8,0,0,1-.89-.3l-.14-.09a.15.15,0,0,0-.2,0,.17.17,0,0,0,0,.21l.14.09a2.08,2.08,0,0,0,1,.34.88.88,0,0,0,.78-.38.05.05,0,0,1,0,0,1.22,1.22,0,0,0,.1-.24.72.72,0,0,0,0-.54A1,1,0,0,0,15.89,6.78Z"/><path class="cls-2" d="M18.11,6.46a1,1,0,0,0-.5,0,1.33,1.33,0,0,0-.5.28V5.31A.15.15,0,0,0,17,5.17a.14.14,0,0,0-.14.14v3a.14.14,0,0,0,.14.14.15.15,0,0,0,.15-.14V7.18h0a1.23,1.23,0,0,1,.57-.41.61.61,0,0,1,.35,0,.46.46,0,0,1,.23.16.62.62,0,0,1,.08.33V8.3a.15.15,0,0,0,.15.14.14.14,0,0,0,.14-.14V7.23a.81.81,0,0,0-.14-.49A.73.73,0,0,0,18.11,6.46Z"/><path class="cls-2" d="M20.07,6.44a1,1,0,1,0,.71.29A1,1,0,0,0,20.07,6.44ZM20.58,8a.74.74,0,0,1-.51.21A.72.72,0,1,1,20.58,8Z"/><path class="cls-2" d="M22.52,6.44a1,1,0,0,0-.71.29l0,0V6.58a.14.14,0,0,0-.14-.14.15.15,0,0,0-.15.14V9.44a.15.15,0,0,0,.15.14.14.14,0,0,0,.14-.14V8.12l0,0a1,1,0,0,0,.71.29,1,1,0,0,0,.71-.29,1,1,0,0,0,0-1.42A1,1,0,0,0,22.52,6.44ZM23,8a.72.72,0,0,1-1-1,.74.74,0,0,1,.51-.21A.72.72,0,0,1,23,8Z"/><path class="cls-2" d="M25.52,6.7a.91.91,0,0,0-1.27,0A1.09,1.09,0,0,0,24,7.89a.77.77,0,0,0,.34.41.87.87,0,0,0,.54.14,1.82,1.82,0,0,0,.67-.15.15.15,0,0,0,.07-.19A.14.14,0,0,0,25.47,8a1.65,1.65,0,0,1-.56.13.65.65,0,0,1-.38-.1.63.63,0,0,1-.22-.28,1.07,1.07,0,0,1-.07-.27h1.34c.07,0,.31,0,.18-.39A1,1,0,0,0,25.52,6.7Zm-1.26.52a.68.68,0,0,1,.62-.49.65.65,0,0,1,.44.18.81.81,0,0,1,.19.31Z"/><path class="cls-2" d="M28,7.12a.91.91,0,0,0-.24-.42.91.91,0,0,0-1.27,0,1.11,1.11,0,0,0-.21,1.19.77.77,0,0,0,.34.41.87.87,0,0,0,.54.14,1.82,1.82,0,0,0,.67-.15.14.14,0,0,0,.07-.19A.14.14,0,0,0,27.67,8a1.65,1.65,0,0,1-.56.13.67.67,0,0,1-.38-.1.63.63,0,0,1-.22-.28,1.76,1.76,0,0,1-.07-.27h1.34C27.85,7.51,28.09,7.53,28,7.12Zm-1.5.1a.71.71,0,0,1,.19-.31.62.62,0,0,1,.87,0,.71.71,0,0,1,.19.31Z"/><path class="cls-2" d="M16.37,9.16H14.28v5.59h.85V13.08h1.33a2.46,2.46,0,0,0,1.27-.33,1.74,1.74,0,0,0,.91-1.57,1.86,1.86,0,0,0-.82-1.57A2.51,2.51,0,0,0,16.37,9.16Zm.26,3h-1.5V10h1.43a1.17,1.17,0,0,1,1.11,1.15A1,1,0,0,1,16.63,12.19Z"/><path class="cls-2" d="M22,10.78v.39a2,2,0,0,0-3.25,1.55,2,2,0,0,0,2,2A2,2,0,0,0,22,14.28v.44h.85V10.78ZM20.74,14A1.26,1.26,0,1,1,22,12.72h0A1.25,1.25,0,0,1,20.74,14Z"/><polygon class="cls-2" points="23.23 10.73 24.36 10.73 25.69 13.27 26.98 10.73 28 10.73 24.95 16.4 23.95 16.4 25.12 14.29 23.23 10.73"/></svg>