<svg xmlns="http://www.w3.org/2000/svg" viewBox="0 0 800 500"><path d="M50 0h700c27.6 0 50 22.4 50 50v400c0 27.6-22.4 50-50 50H50c-27.6 0-50-22.4-50-50V50C0 22.4 22.4 0 50 0z" fill-rule="evenodd" clip-rule="evenodd" fill="#f0ff5f"/><path d="M570.7 201.2c-15.3 0-27.6 6.1-35.3 17.7l-1.1 1.6-1.1-1.6c-7.5-11.6-19.3-17.7-33.9-17.7-14 0-25.4 5.6-33 16.3l-1 1.3-6.3-14.6h-35.2l9.5 22v96h34.3V254c0-14.6 7.4-23.4 19.7-23.4 12.2 0 19.5 8.7 19.5 23.4v68H541v-68c0-14.6 7.4-23.4 19.7-23.4 12.2 0 19.5 8.7 19.5 23.4v68h34.3v-73c.1-29-17.1-47.8-43.8-47.8zm144.6 49.7l-.3-1.6c-2.7-13.4-12.2-21.4-25.6-21.4-13.5 0-23.2 8-25.9 21.4l-.3 1.6h52.1zm29.7-4.2v29.6h-81.1l.5 1.8c2.6 8.9 8.8 15 17.9 18.1 7.5 2.3 17.6 2.2 25.2-.2 6.9-2.2 10.9-4.6 10.9-4.6l17.9 20.9c-11.3 8-26.6 12.7-41 12.7-38.1 0-63.7-24.9-63.7-61.9 0-35.9 24.3-61.9 57.8-61.9 28.9 0 49.2 16.6 55.6 45.5zm-365.3 16.4c0-17-11.6-29.3-27.5-29.3-16 0-27.5 12.3-27.5 29.3s11.6 29.3 27.5 29.3c16 0 27.5-12.3 27.5-29.3zm34.3 0c0 17.5-6.6 33.5-18.6 44.9-11.5 11-26.8 17-43.2 17-16.3 0-31.7-6-43.2-17-12-11.4-18.6-27.4-18.6-44.9s6.6-33.5 18.6-44.9c11.5-11 26.8-17 43.2-17 16.3 0 31.7 6 43.2 17 12 11.4 18.6 27.4 18.6 44.9zM249.7 175h-34.3v29.2h-16.3v29.4h16.3v49.6c0 27.3 12.3 38.9 41.2 38.9H273v-29.4l-9.8-.2c-9.3 0-13.6-5.1-13.6-16v-42.9h23.9l12.5-29.4h-36.4V175zm-105.4 86.9c-.7-16.3-12.3-28.1-27.5-28.1-16 0-27.5 12.3-27.5 29.3s11.6 29.3 27.5 29.3c15.2 0 26.8-11.8 27.5-28v-2.5zm34.3 34.5l6.7 25.6h-30.9l-4.4-16.4-1.6 1.8c-10.1 11.3-23.9 17.6-38.7 17.6-14.4 0-28-6-38.2-16.9-10.6-11.5-16.5-27.5-16.5-45s5.9-33.5 16.6-45c10.2-10.9 23.7-16.9 38.2-16.9 14.1 0 27.3 5.7 37.1 15.9l2.2 2.3v-15.2h29.5v92.2z" fill-rule="evenodd" clip-rule="evenodd"/></svg>