<svg id="Layer_1" data-name="Layer 1" xmlns="http://www.w3.org/2000/svg" viewBox="0 0 30 20"><defs><style>.cls-1{fill:#f7931a;}.cls-2{fill:#fff;}</style></defs><g id="Bitcoin"><rect class="cls-1" width="30" height="20" rx="3"/><path class="cls-2" d="M21.79,11.69a7,7,0,1,1-5.1-8.48,7,7,0,0,1,5.1,8.48Z"/><path class="cls-1" d="M12.7,11.18a.28.28,0,0,1-.35.18l-.56-.14-.38.88,1,.25.54.14-.31,1.28.76.19.32-1.26.61.16L14,14.11l.76.19L15.1,13c1.31.25,2.3.15,2.71-1a1.35,1.35,0,0,0-.7-1.86,1.23,1.23,0,0,0,1-1.13h0c.14-.93-.57-1.43-1.54-1.76L16.86,6l-.77-.19L15.79,7l-.62-.14.31-1.24-.77-.19L14.4,6.7l-.49-.11h0l-1.06-.26-.21.82s.57.13.56.14a.4.4,0,0,1,.36.44Zm3.63.28c-.24,1-1.84.44-2.36.31l.42-1.69c.52.13,2.19.39,1.94,1.38ZM16.57,9c-.22.87-1.55.43-2,.32L15,7.77C15.4,7.88,16.79,8.08,16.57,9Z"/></g></svg>