<svg id="Layer_1" data-name="Layer 1" xmlns="http://www.w3.org/2000/svg" viewBox="0 0 30 20"><defs><style>.cls-1,.cls-3{fill:#26a17b;}.cls-2{fill:#fff;}.cls-2,.cls-3{fill-rule:evenodd;}</style></defs><g id="Tether"><rect class="cls-1" width="30" height="20" rx="3"/><path class="cls-2" d="M9.9,3.07,7,9.23a.11.11,0,0,0,0,.14L14.92,17a.12.12,0,0,0,.16,0L23,9.37a.11.11,0,0,0,0-.14L20.1,3.07A.12.12,0,0,0,20,3H10a.12.12,0,0,0-.11.07Z"/><path class="cls-3" d="M16.16,9.85h0c-.06,0-.4,0-1.15,0-.59,0-1,0-1.16,0h0c-2.31-.1-4-.51-4-1s1.72-.88,4-1V9.45c.15,0,.58,0,1.17,0s1.08,0,1.14,0V7.88c2.3.1,4,.51,4,1s-1.72.88-4,1Zm0-2.13V6.32h3.21V4.18H10.64V6.32h3.2v1.4c-2.6.12-4.56.64-4.56,1.25s2,1.14,4.56,1.26v4.49h2.32V10.23c2.6-.12,4.56-.64,4.56-1.26s-1.95-1.13-4.56-1.25Zm0,0"/></g></svg>