<?xml version="1.0" encoding="utf-8"?>
<!-- Generator: Adobe Illustrator 26.3.1, SVG Export Plug-In . SVG Version: 6.00 Build 0)  -->
<svg version="1.1" id="Layer_1" xmlns="http://www.w3.org/2000/svg" xmlns:xlink="http://www.w3.org/1999/xlink" x="0px" y="0px"
	 viewBox="0 0 50 20" style="enable-background:new 0 0 50 20;" xml:space="preserve">
<style type="text/css">
	.st0{fill:#FFFFFF;}
	.st1{fill:#FF3100;}
</style>
<g id="Group_771" transform="translate(-1133 -2785)">
	<path id="Rectangle_38" class="st0" d="M1136,2785h44c1.7,0,3,1.3,3,3v14c0,1.7-1.3,3-3,3h-44c-1.7,0-3-1.3-3-3v-14
		C1133,2786.3,1134.3,2785,1136,2785z"/>
	<g id="hoolah_logo_black" transform="translate(1134.99 2788)">
		<path id="Path_341" d="M4,7.9C3.9,8.8,3.1,9.5,2.2,9.5c0,0-0.1,0-0.1,0c-0.4,0-0.9-0.1-1.3-0.3C0.5,8.9,0.3,8.7,0.1,8.4
			C0.1,8.2,0,8.1,0,8l1.3-0.3v0C1.4,8,1.7,8.2,2.1,8.2c0.3,0,0.5-0.1,0.5-0.3S2.4,7.6,2,7.5L1.4,7.4C0.8,7.3,0.3,6.7,0.3,6
			C0.4,5.1,1.2,4.5,2,4.5c0,0,0,0,0,0c0.3,0,0.7,0.1,1,0.3c0.2,0.1,0.4,0.3,0.5,0.4c0.1,0.2,0.2,0.3,0.2,0.5L2.6,6.1l0,0
			C2.6,5.9,2.3,5.7,2.1,5.7C1.9,5.7,1.7,5.8,1.7,6s0.2,0.2,0.5,0.3l0.5,0.1C3.5,6.5,4,7.1,4,7.9L4,7.9z M9.2,7c0,1.3,1,2.4,2.4,2.5
			c0,0,0.1,0,0.1,0c1.4,0,2.5-1,2.5-2.4c0-1.4-1-2.5-2.4-2.5c0,0-0.1,0-0.1,0c-1.3-0.1-2.5,1-2.5,2.3C9.2,6.9,9.2,7,9.2,7z M12.8,7
			c0,0.6-0.5,1.1-1.1,1c-0.6,0-1.1-0.5-1-1.1c0-0.6,0.5-1,1.1-1c0.6,0,1.1,0.4,1.1,1C12.8,6.9,12.8,7,12.8,7L12.8,7z M14.8,4.7v4.7
			h1.4V8h0.9c0.9,0,1.6-0.6,1.7-1.5c0-0.1,0-0.1,0-0.2c0.1-0.9-0.6-1.6-1.5-1.7c-0.1,0-0.1,0-0.2,0L14.8,4.7z M17.3,6.3
			c0,0.2-0.1,0.4-0.5,0.4h-0.7V5.9h0.7C17.2,5.9,17.3,6.1,17.3,6.3z M7.3,4.7v1.8L5.8,6.8V4.7H4.4v4.7h1.4V8l1.5-0.4v1.7h1.4V4.7
			L7.3,4.7L7.3,4.7z M19.4,9.3h2.4c0.8,0.1,1.5-0.4,1.5-1.2c0,0,0-0.1,0-0.1c0-0.5-0.3-1-0.8-1.2C22.8,6.6,23,6.2,23,5.9
			c0-0.7-0.6-1.2-1.5-1.2h-2V9.3L19.4,9.3z M20.8,6.4V5.8h0.4c0.2,0,0.3,0.1,0.4,0.3c0,0.2-0.1,0.3-0.3,0.4c0,0,0,0-0.1,0H20.8z
			 M20.8,8.2V7.5h0.7c0.3,0,0.4,0.1,0.4,0.3c0,0.2-0.1,0.3-0.4,0.3L20.8,8.2z M28.3,7c0,1.4,1.2,2.5,2.6,2.5c0.9,0,1.7-0.5,2.1-1.3
			l-1.3-0.6c-0.2,0.4-0.5,0.6-0.9,0.6c-0.6,0-1.1-0.6-1.1-1.2c0-0.6,0.5-1.1,1.1-1.1c0.4,0,0.8,0.2,0.9,0.6L33,5.8
			c-0.7-1.2-2.2-1.6-3.5-0.9C28.8,5.3,28.3,6.1,28.3,7z M33.4,9.3h1.4V7.4h0.4l1,1.9h1.6l-1.4-2.5l1.3-2.2h-1.6l-1.4,2.4V4.7h-1.4
			L33.4,9.3z M28.4,9.3H27l-0.3-0.7L25,9l-0.1,0.3h-1.5l1.9-4.7h1.2L28.4,9.3L28.4,9.3z M26.3,7.5l-0.3-0.9l-0.4,1.1L26.3,7.5
			L26.3,7.5z"/>
		<path id="Path_342" class="st1" d="M44.8,7.7h-0.2L45,7.3c0.3-0.3,0.4-0.7,0.3-1c-0.1-0.4-0.5-0.6-0.9-0.6h-3.9c0,0-0.1,0-0.1-0.1
			c0,0,0,0,0-0.1L43,2.9c0,0,0,0,0.1,0c0,0,0,0,0,0l-0.9,2.1h1.2L45.5,0h-1l-5.2,5.1c-0.3,0.3-0.4,0.7-0.2,1.1
			c0.2,0.3,0.5,0.6,0.9,0.5h3.8c0,0,0.1,0,0.1,0.1c0,0,0,0,0,0.1L43,7.6c-0.1,0.1-0.2,0.2-0.3,0.4l-0.3,0.8h1.9c0,0,0.1,0,0.1,0.1
			c0,0,0,0,0,0.1l-3.8,3.2c0,0,0,0-0.1,0c0,0,0,0,0,0l1.4-3.3l0,0l0.1-0.3l0,0l0.5-1.2h-1.2L38.4,14h1.4l5.6-4.6
			c0.3-0.3,0.4-0.7,0.3-1.1C45.6,7.9,45.2,7.7,44.8,7.7L44.8,7.7z"/>
	</g>
</g>
</svg>
